<svg xmlns="http://www.w3.org/2000/svg" width="183.923" height="300" viewBox="0 0 137.94255 225.00001"><path d="M65.108 19.08c4.194-.754 8.664-.235 12.468 1.75 5.168 2.61 9.042 7.668 10.138 13.362.882 4.337.243 8.976-1.864 12.876-2.808 5.392-8.333 9.259-14.361 10.057-4.043.562-8.274-.154-11.854-2.136-5.142-2.738-8.892-7.943-9.836-13.692-.86-4.918.257-10.186 3.165-14.262 2.819-4.088 7.263-7.017 12.145-7.954z" fill="#e73f35"/><path d="M11.25 78.705c9.653-.015 19.305-.004 28.962-.007 9.219 29.039 18.408 58.093 27.609 87.139.338.908.441 1.956 1.117 2.702 9.612-29.943 19.221-59.89 28.818-89.837 9.645 0 19.291-.018 28.936.011-14.104 42.511-28.216 85.025-42.338 127.532-10.539.011-21.077 0-31.619.004-13.847-42.507-27.602-85.047-41.485-127.543z" fill="#3f4444"/></svg>